<?xml version="1.0" encoding="UTF-8"?>
<!DOCTYPE svg PUBLIC "-//W3C//DTD SVG 1.1//EN" "http://www.w3.org/Graphics/SVG/1.1/DTD/svg11.dtd">
<!-- Creator: CorelDRAW 2018 (64-Bit) -->
<svg xmlns="http://www.w3.org/2000/svg" xml:space="preserve" width="0.499992in" height="0.499992in" version="1.1" style="shape-rendering:geometricPrecision; text-rendering:geometricPrecision; image-rendering:optimizeQuality; fill-rule:evenodd; clip-rule:evenodd"
viewBox="0 0 499.99 499.99"
 xmlns:xlink="http://www.w3.org/1999/xlink">
 <defs>
  <style type="text/css">
   <![CDATA[
    .fil0 {fill:red}
   ]]>
  </style>
 </defs>
 <g id="Layer_x0020_1">
  <metadata id="CorelCorpID_0Corel-Layer"/>
  <path class="fil0" d="M69.33 224.61l0 262.69c0,5.99 6.7,12.7 12.69,12.7l335.94 0c5.99,0 12.69,-6.71 12.69,-12.7l0 -262.69c0,-5.99 -6.7,-12.7 -12.69,-12.7l-335.94 0c-5.99,0 -12.69,6.71 -12.69,12.7zm39.06 -88.87l0 46.87 58.59 0c0,-38.13 -4.16,-70.79 23.68,-98.39 8.46,-8.39 13.2,-11.84 24.48,-17.51 49.15,-24.7 117.85,8.62 117.85,79.76l0 36.13 58.59 0c0,-38.28 3.35,-66.05 -13.02,-101.24 -6.84,-14.71 -17.48,-29.35 -28.24,-40.11 -10.98,-10.98 -24.57,-20.78 -39.46,-27.93 -16.26,-7.8 -33.46,-12.17 -50.7,-13.33l-19.03 0c-49.22,3.3 -96.1,32.13 -119.42,80.72 -6.51,13.56 -13.33,35.51 -13.33,55.03zm2.77 236.51c-2.22,-1.48 -8.44,-6.34 -11.28,-6.34 -3.81,0 -11.81,6.14 -1.13,13.11 2.26,1.48 5.07,3.86 7.48,4.51l0 1.41c-1.96,0.46 -12.69,5.87 -12.69,11.28 0,3.54 3.07,6.34 6.35,6.34 2.09,0 8.98,-5.13 11.28,-6.34 0,18.4 11.2,11.47 12.36,8.13 0.8,-2.31 0.32,-5.58 0.32,-8.13 3.9,1.04 7.96,6.34 11.98,6.34 2.91,0 12.04,-6.06 1.14,-13.12 -2.28,-1.48 -5.06,-3.85 -7.48,-4.5 1.23,-4.62 10.41,-5.5 12.19,-11.16 1.15,-3.64 -1.57,-7.87 -5.84,-7.87 -3.31,0 -9.03,4.78 -11.98,6.34 0,-3.61 1.55,-12.45 -6.25,-12.3 -6.16,0.12 -6.43,6.09 -6.43,12.3zm253.06 35.95l36.65 0c7.62,0 7.62,-11.98 0,-11.98l-38.07 0c-5.39,0 -7.32,11.98 1.41,11.98zm-114.2 -35.95c-12.27,-3.14 -17.24,-9.27 -22.31,-4.69 -1.96,1.77 -1.65,3.24 -1.65,6.1 0,2.96 11.11,9.45 12.69,9.87 -1.41,2.11 -4.33,3.61 -6.77,5.21 -6,3.95 -5.92,3.69 -5.92,8.89 0,1.84 3.74,4.93 4.93,4.93 5.24,0 8.28,-5.17 12.69,-6.34 0,7.1 -0.73,11.98 7.75,11.98 5.79,0 4.94,-10.02 4.94,-11.98 3.9,1.04 7.96,6.34 11.98,6.34 4.62,0 5.64,-4.38 5.64,-7.76 0,-4.29 -9.92,-7.13 -12.69,-11.28 1.57,-0.42 12.69,-6.91 12.69,-9.87 0,-2.66 0.28,-3.99 -1.29,-5.76 -5.36,-6 -13.41,3.62 -16.33,4.35l-6.35 0zm-72.6 0c-2.3,-1.22 -9.19,-6.34 -11.28,-6.34 -4.93,0 -11.12,6.59 -1.13,13.11 2.26,1.48 5.07,3.86 7.48,4.51 -3.29,4.91 -12.69,5.97 -12.69,12.69 0,3.54 3.06,6.34 6.34,6.34 2.09,0 8.98,-5.13 11.28,-6.34 0,8.94 0.62,11.98 7.75,11.98 5.79,0 4.94,-10.02 4.94,-11.98 3.9,1.04 7.96,6.34 11.98,6.34 4.59,0 7.78,-6.12 4.66,-10.28 -1.86,-2.46 -8.92,-5.21 -11,-8.05 1.97,-2.69 7.71,-4.88 10.46,-7.88 3.52,-3.84 1.61,-10.45 -4.11,-10.45 -3.31,0 -9.03,4.78 -11.98,6.34 0,-4.62 0.94,-12.44 -6.36,-12.41 -6.84,0.03 -6.33,8.79 -6.33,12.41zm132.52 0c-2.95,-1.56 -8.67,-6.34 -11.98,-6.34 -5.34,0 -7.76,6.18 -4.45,10.07 3.02,3.56 8.78,5.26 10.8,8.26 -2.24,3.06 -18.67,8.93 -10.2,16.54 5.89,5.3 10.29,-3.07 15.84,-4.56 0,5.36 -0.87,11.98 6.35,11.98 6.26,0 6.34,-5.57 6.34,-11.98 2.76,1.46 8.9,6.34 11.98,6.34 3.38,0 5.64,-3.34 5.64,-7.76 0,-3.76 -10.43,-7.91 -12.69,-11.28 1.04,-0.28 12.69,-5.91 12.69,-11.28 0,-4.11 -2.47,-6.34 -7.05,-6.34 -1.23,0 -8.72,5.36 -10.57,6.34 0,-3.1 0.21,-6.23 -0.77,-8.4 -2.6,-5.74 -9.37,-4.56 -11.17,-0.72 -1.06,2.25 -0.75,5.88 -0.75,9.12zm-230.93 -35.98l341.96 0 0 95.75 -341.96 0 0 -95.75z"/>
 </g>
</svg>
