<?xml version="1.0" encoding="UTF-8"?>
<!DOCTYPE svg PUBLIC "-//W3C//DTD SVG 1.1//EN" "http://www.w3.org/Graphics/SVG/1.1/DTD/svg11.dtd">
<!-- Creator: CorelDRAW 2018 (64-Bit) -->
<svg xmlns="http://www.w3.org/2000/svg" xml:space="preserve" width="0.499992in" height="0.499992in" version="1.1" style="shape-rendering:geometricPrecision; text-rendering:geometricPrecision; image-rendering:optimizeQuality; fill-rule:evenodd; clip-rule:evenodd"
viewBox="0 0 499.99 499.99"
 xmlns:xlink="http://www.w3.org/1999/xlink">
 <defs>
  <style type="text/css">
   <![CDATA[
    .fil0 {fill:red}
   ]]>
  </style>
 </defs>
 <g id="Layer_x0020_1">
  <metadata id="CorelCorpID_0Corel-Layer"/>
  <path class="fil0" d="M69.33 224.61l0 262.69c0,5.99 6.7,12.7 12.69,12.7l335.94 0c5.99,0 12.69,-6.71 12.69,-12.7l0 -262.69c0,-5.99 -6.7,-12.7 -12.69,-12.7l-335.94 0c-5.99,0 -12.69,6.71 -12.69,12.7zm39.06 -88.87l0 46.88 58.59 0c0,-38.13 -4.16,-70.79 23.68,-98.39 8.46,-8.39 13.2,-11.84 24.48,-17.5 49.15,-24.7 117.85,8.62 117.85,79.76l0 36.13 58.59 0c0,-38.28 3.35,-66.05 -13.02,-101.24 -6.84,-14.71 -17.48,-29.35 -28.24,-40.11 -10.98,-10.98 -24.57,-20.78 -39.46,-27.93 -16.26,-7.81 -33.46,-12.17 -50.7,-13.33l-19.03 0c-49.22,3.3 -96.1,32.13 -119.42,80.72 -6.51,13.56 -13.33,35.51 -13.33,55.02zm154.32 172.02c0,27.18 31.95,25.18 34.97,5.15 1.17,-7.72 1.99,-16.4 9.11,-22.47 22.67,-19.33 54.56,5.07 42.4,31.88 -3.55,7.83 -9.33,10.92 -16.91,14.66 -12.01,5.92 -24.84,21.68 -24.84,39.19 0,14.76 -3.39,35.08 18.42,35.08 12.92,0 16.75,-10.47 16.67,-21.92 -0.24,-33.94 12.07,-11.49 34.57,-44.37 8.12,-11.85 10.15,-23.06 10.15,-37.21 0,-31.13 -28.51,-59.64 -59.64,-59.64 -19.3,0 -33.4,4.89 -46.7,18.2 -10.35,10.35 -18.2,25.41 -18.2,41.44zm44.73 140.33c0,6.06 -0.33,10.2 5.44,15.62 2.89,2.72 6.81,4.27 10.84,4.56l2.76 0c8.2,-0.59 16.05,-6.46 16.05,-18.42 0,-15.49 -19.37,-21.77 -29.65,-12.11 -2.11,1.98 -5.44,6.64 -5.44,10.35zm-128.93 -128.05c0,6.06 -0.33,10.2 5.43,15.61 9.41,8.85 29.65,5.33 29.65,-13.86 0,-15.49 -19.37,-21.77 -29.65,-12.11 -2.11,1.98 -5.43,6.64 -5.43,10.35zm-65.78 0c0,6.06 -0.33,10.2 5.43,15.61 9.41,8.85 29.65,5.33 29.65,-13.86 0,-15.49 -19.37,-21.77 -29.65,-12.11 -2.11,1.98 -5.43,6.64 -5.43,10.35z"/>
 </g>
</svg>
