<?xml version="1.0" encoding="UTF-8"?>
<!DOCTYPE svg PUBLIC "-//W3C//DTD SVG 1.1//EN" "http://www.w3.org/Graphics/SVG/1.1/DTD/svg11.dtd">
<!-- Creator: CorelDRAW 2018 (64-Bit) -->
<svg xmlns="http://www.w3.org/2000/svg" xml:space="preserve" width="8.4666mm" height="8.4666mm" version="1.1" style="shape-rendering:geometricPrecision; text-rendering:geometricPrecision; image-rendering:optimizeQuality; fill-rule:evenodd; clip-rule:evenodd"
viewBox="0 0 846.66 846.66"
 xmlns:xlink="http://www.w3.org/1999/xlink">
 <defs>
  <style type="text/css">
   <![CDATA[
    .fil0 {fill:#dfa2a2}
   ]]>
  </style>
 </defs>
 <g id="Layer_x0020_1">
  <metadata id="CorelCorpID_0Corel-Layer"/>
  <path class="fil0" d="M730.91 570.51l28.11 0 0 28.11 -28.11 0 0 -28.11zm-631.09 -59.92l0 -174.52 23.16 0 0 71.9 90.19 0 0 -71.9 23.15 0 0 174.52 -23.15 0 0 -82.14 -90.19 0 0 82.14 -23.16 0zm167.5 -56.06l21.7 -1.95c1.01,8.77 3.41,15.96 7.19,21.61 3.77,5.61 9.62,10.16 17.55,13.65 7.92,3.45 16.86,5.2 26.77,5.2 8.81,0 16.57,-1.3 23.32,-3.94 6.74,-2.64 11.74,-6.26 15.03,-10.85 3.29,-4.59 4.95,-9.58 4.95,-14.95 0,-5.44 -1.58,-10.19 -4.75,-14.3 -3.17,-4.06 -8.41,-7.47 -15.72,-10.28 -4.67,-1.78 -15.03,-4.63 -31.08,-8.49 -16.05,-3.86 -27.26,-7.47 -33.68,-10.88 -8.32,-4.39 -14.5,-9.83 -18.56,-16.29 -4.11,-6.46 -6.14,-13.74 -6.14,-21.74 0,-8.85 2.52,-17.1 7.52,-24.74 5,-7.68 12.27,-13.49 21.9,-17.47 9.58,-3.98 20.27,-5.97 32.01,-5.97 12.92,0 24.33,2.07 34.2,6.26 9.88,4.14 17.47,10.27 22.8,18.4 5.32,8.08 8.16,17.27 8.57,27.5l-22.18 1.71c-1.18,-11.01 -5.2,-19.34 -12.07,-24.94 -6.87,-5.65 -17.02,-8.45 -30.43,-8.45 -13.97,0 -24.17,2.55 -30.55,7.67 -6.38,5.12 -9.59,11.3 -9.59,18.53 0,6.25 2.28,11.41 6.79,15.48 4.47,4.02 16.05,8.2 34.81,12.43 18.77,4.26 31.65,7.96 38.64,11.13 10.11,4.67 17.63,10.56 22.46,17.75 4.84,7.15 7.24,15.4 7.24,24.74 0,9.31 -2.64,18 -7.97,26.21 -5.32,8.2 -12.92,14.58 -22.87,19.13 -9.95,4.55 -21.12,6.82 -33.6,6.82 -15.76,0 -28.96,-2.31 -39.6,-6.9 -10.69,-4.59 -19.02,-11.5 -25.07,-20.76 -6.09,-9.22 -9.26,-19.66 -9.59,-31.32zm170.63 56.06l0 -174.52 77.35 0c15.56,0 27.38,1.58 35.46,4.71 8.09,3.13 14.55,8.65 19.38,16.57 4.83,7.92 7.23,16.7 7.23,26.29 0,12.39 -4.02,22.83 -12.02,31.32 -8.01,8.49 -20.36,13.85 -37.09,16.17 6.13,2.92 10.76,5.85 13.93,8.69 6.74,6.18 13.12,13.94 19.09,23.24l30.19 47.53 -28.85 0 -23.07 -36.32c-6.7,-10.52 -12.27,-18.52 -16.62,-24.09 -4.38,-5.56 -8.28,-9.42 -11.74,-11.66 -3.41,-2.19 -6.94,-3.74 -10.52,-4.63 -2.6,-0.53 -6.86,-0.81 -12.84,-0.81l-26.73 0 0 77.51 -23.15 0zm23.15 -97.5l49.56 0c10.57,0 18.77,-1.1 24.7,-3.29 5.94,-2.15 10.45,-5.65 13.49,-10.48 3.09,-4.8 4.63,-10 4.63,-15.64 0,-8.25 -2.96,-15.07 -8.93,-20.4 -5.98,-5.32 -15.4,-7.96 -28.28,-7.96l-55.17 0 0 57.77zm152.39 97.5l0 -174.52 65.89 0c11.58,0 20.44,0.56 26.57,1.66 8.57,1.42 15.76,4.14 21.57,8.13 5.81,4.02 10.48,9.62 14.02,16.81 3.53,7.2 5.28,15.12 5.28,23.77 0,14.79 -4.71,27.34 -14.18,37.58 -9.42,10.28 -26.53,15.4 -51.23,15.4l-44.77 0 0 71.17 -23.15 0zm23.15 -91.65l45.1 0c14.95,0 25.51,-2.76 31.81,-8.33 6.25,-5.56 9.38,-13.36 9.38,-23.48 0,-7.27 -1.83,-13.53 -5.52,-18.73 -3.7,-5.2 -8.57,-8.65 -14.59,-10.32 -3.9,-1.01 -11.09,-1.54 -21.53,-1.54l-44.65 0 0 62.4zm-595.29 -220l0 448.79 763.96 0 0 -448.79 -763.96 0zm-16.51 450.77l0 -1.98 0 -448.79 0 -2.95 0 -13.56 796.98 0 0 13.56 0 2.95 0 448.79 0 1.98 0 14.53 -796.98 0 0 -14.53zm62.8 -79.2l28.11 0 0 28.11 -28.11 0 0 -28.11zm643.27 -322.47l28.11 0 0 28.11 -28.11 0 0 -28.11zm-643.27 0l28.11 0 0 28.11 -28.11 0 0 -28.11zm-29.77 380.34l730.92 0 0 -410.1 -730.92 0 0 410.1z"/>
 </g>
</svg>
