<?xml version="1.0" encoding="UTF-8"?>
<!DOCTYPE svg PUBLIC "-//W3C//DTD SVG 1.1//EN" "http://www.w3.org/Graphics/SVG/1.1/DTD/svg11.dtd">
<!-- Creator: CorelDRAW 2018 (64-Bit) -->
<svg xmlns="http://www.w3.org/2000/svg" xml:space="preserve" width="8.4666mm" height="8.4666mm" version="1.1" style="shape-rendering:geometricPrecision; text-rendering:geometricPrecision; image-rendering:optimizeQuality; fill-rule:evenodd; clip-rule:evenodd"
viewBox="0 0 846.66 846.66"
 xmlns:xlink="http://www.w3.org/1999/xlink">
 <defs>
  <style type="text/css">
   <![CDATA[
    .fil0 {fill:#8173c0;;}
   ]]>
  </style>
 </defs>
 <g id="Layer_x0020_1">
  <metadata id="CorelCorpID_0Corel-Layer"/>
  <path class="fil0" d="M181.73 486.17c-33.91,0 -27.88,-26.99 -15,-26.99 3.62,0 23.58,10.66 34.46,-7.53 2.3,-3.85 8.64,-20.5 20.93,-10.38 15.24,12.55 -12.61,44.9 -40.39,44.9zm572.2 -248.77l83.27 0c5.21,0 9.46,4.26 9.46,9.46l0 371.9c0,5.2 -4.25,9.46 -9.46,9.46l-83.27 0c-5.21,0 -9.47,-4.26 -9.47,-9.46l0 -371.9c0,-5.2 4.26,-9.46 9.47,-9.46zm13.77 112.92l0 -77.19 25 0c9.47,0 15.63,0.38 18.5,1.15 4.43,1.17 8.13,3.68 11.11,7.57 2.98,3.88 4.47,8.89 4.47,15.04 0,4.74 -0.86,8.71 -2.57,11.94 -1.72,3.24 -3.89,5.77 -6.54,7.62 -2.64,1.83 -5.33,3.06 -8.06,3.65 -3.72,0.74 -9.1,1.11 -16.14,1.11l-10.13 0 0 29.11 -15.64 0zm15.64 -64.14l0 21.99 8.5 0c6.12,0 10.2,-0.41 12.27,-1.22 2.06,-0.81 3.68,-2.07 4.85,-3.81 1.17,-1.73 1.76,-3.72 1.76,-6.02 0,-2.82 -0.83,-5.14 -2.46,-6.97 -1.65,-1.83 -3.72,-2.98 -6.25,-3.45 -1.86,-0.34 -5.57,-0.52 -11.18,-0.52l-7.49 0zm-18.61 107.39l15.63 0 0 41.83c0,6.65 0.2,10.94 0.58,12.9 0.66,3.16 2.22,5.71 4.71,7.62 2.49,1.92 5.89,2.87 10.2,2.87 4.37,0 7.67,-0.9 9.9,-2.71 2.23,-1.81 3.56,-4.02 4.01,-6.67 0.45,-2.64 0.68,-7 0.68,-13.11l0 -42.73 15.63 0 0 40.59c0,9.27 -0.41,15.83 -1.25,19.66 -0.85,3.82 -2.39,7.06 -4.66,9.7 -2.24,2.64 -5.26,4.73 -9.04,6.29 -3.79,1.56 -8.71,2.35 -14.8,2.35 -7.35,0 -12.92,-0.84 -16.71,-2.55 -3.79,-1.71 -6.79,-3.92 -9,-6.65 -2.21,-2.73 -3.65,-5.57 -4.35,-8.57 -1.03,-4.42 -1.53,-10.96 -1.53,-19.6l0 -41.22zm49.38 169.17l15.09 4.63c-2.32,8.5 -6.18,14.81 -11.57,18.94 -5.39,4.12 -12.22,6.18 -20.5,6.18 -10.26,0 -18.69,-3.5 -25.3,-10.51 -6.6,-7.01 -9.9,-16.58 -9.9,-28.75 0,-12.85 3.32,-22.83 9.95,-29.95 6.63,-7.12 15.36,-10.67 26.18,-10.67 9.45,0 17.12,2.8 23.02,8.39 3.52,3.3 6.14,8.05 7.9,14.25l-15.41 3.66c-0.92,-3.99 -2.82,-7.15 -5.72,-9.47 -2.91,-2.32 -6.43,-3.47 -10.56,-3.47 -5.73,0 -10.39,2.05 -13.94,6.17 -3.58,4.09 -5.36,10.74 -5.36,19.94 0,9.74 1.76,16.7 5.26,20.83 3.53,4.15 8.09,6.21 13.71,6.21 4.15,0 7.73,-1.31 10.71,-3.95 2.99,-2.64 5.14,-6.77 6.44,-12.43zm-453.94 4.4l0 47.98c0,14.27 14.13,12 23.99,12l0 -71.98c-9.86,0 -23.99,-2.26 -23.99,12zm119.96 41.99c0,14.41 -0.07,24.93 6.99,37.99 8.32,15.38 18.43,25.66 33.97,33.51 45.77,23.1 103,-14.25 103,-59.51l0 -11.99c0,-32.25 -33.79,-65.98 -65.98,-65.98l-12 0c-32.24,0 -65.98,33.78 -65.98,65.98zm16.5 -185.94l223.42 0 0 -110.97c0,-3.61 -5.38,-8.99 -8.99,-8.99l-136.46 0c-23.4,0 -35.44,34.88 -44.99,53.98 -10.91,21.82 -21.61,44.48 -32.98,65.98zm-88.48 77.97l0 125.96 49.49 0c-0.51,-6.16 -1.5,-3.35 -1.5,-9 0,-13.75 3.4,-30.26 7.98,-40 6.18,-13.19 10.46,-19.72 20.13,-29.35 64.75,-64.47 163.83,-14.64 163.83,69.35 0,5.65 -0.99,2.84 -1.5,9 13.99,0 27.99,0 41.99,0 15.08,0 31.48,3.3 31.48,-12l0 -167.94 -256.41 0c-27.04,0 -55.49,26.6 -55.49,53.98zm-299.9 -109.46c-49.91,0 -37.35,-28.49 -25.49,-28.49 8.12,0 22.06,14.81 37.16,-1.83 5.33,-5.86 4.81,-10.17 15.32,-10.17 3.85,0 9,4.17 9,12 0,13.4 -21.61,28.49 -35.99,28.49zm35.99 -121.46c0,-6.42 4.62,-12 10.5,-12 15.38,0 8.93,18 31.49,18 9.94,0 14.74,-6 19.49,-6 9.44,0 10.5,8.26 10.5,14.99 0,9.05 -33.35,24.23 -57.26,6.27 -4.71,-3.55 -14.72,-13.8 -14.72,-21.26zm-32.99 -98.97l-9 0c-31.97,0 -65.98,34.01 -65.98,65.98l1.5 22.49c-8.24,1.92 -19.94,12.36 -25.07,18.41 -13.92,16.4 -15.95,40.83 -7.75,60.9 9.71,23.75 9.74,0.86 -0.77,32.56 -12.22,36.9 3.32,82.44 33.57,104.09 8.03,5.75 15.1,8.75 24.01,13.47 -0.37,16.65 -7.06,36.07 12.44,61.04 15.15,19.4 31.89,28.93 62.54,28.93 1.44,17.26 32.45,47.98 61.48,47.98l125.96 0c7.25,0 12,-4.74 12,-12l0 -50.98c0,-12.06 -25.14,-9 -35.99,-9 0,-16.35 -3.97,-27.74 -10.5,-37.48 15.47,-23.1 22.5,-27.63 22.5,-62.98 0,-18.29 -7.57,-32.39 -15,-43.49 16.73,-24.99 20.57,-57.95 7.03,-85 -3.08,-6.16 -12.61,-19.67 -17.53,-22.96 27.81,-52.56 -5.27,-100.31 -47.4,-108.55 -7.36,-1.44 -7.59,-0.4 -10.97,-4.03 -4.52,-4.86 -3.22,-7.02 -13.57,-14.92 -22.48,-17.16 -51.34,-22.54 -77.03,-9.48 -21.03,10.69 -6.76,5.02 -26.47,5.02z"/>
 </g>
</svg>
