<?xml version="1.0" encoding="UTF-8"?>
<!DOCTYPE svg PUBLIC "-//W3C//DTD SVG 1.1//EN" "http://www.w3.org/Graphics/SVG/1.1/DTD/svg11.dtd">
<!-- Creator: CorelDRAW 2018 (64-Bit) -->
<svg xmlns="http://www.w3.org/2000/svg" xml:space="preserve" width="8.4666mm" height="8.4666mm" version="1.1" style="shape-rendering:geometricPrecision; text-rendering:geometricPrecision; image-rendering:optimizeQuality; fill-rule:evenodd; clip-rule:evenodd"
viewBox="0 0 846.66 846.66"
 xmlns:xlink="http://www.w3.org/1999/xlink">
 <defs>
  <style type="text/css">
   <![CDATA[
    .fil0 {fill:#b4b1b7}
   ]]>
  </style>
 </defs>
 <g id="Layer_x0020_1">
  <metadata id="CorelCorpID_0Corel-Layer"/>
  <path class="fil0" d="M92.16 51.65l662.34 0c22.29,0 40.51,18.22 40.51,40.51l0 662.34c0,22.29 -18.22,40.51 -40.51,40.51l-662.34 0c-22.29,0 -40.51,-18.22 -40.51,-40.51l0 -662.34c0,-22.29 18.22,-40.51 40.51,-40.51zm358.75 227.35l0 -18.39 44.12 0 0 18.39c-4.15,-0.1 -3.65,-0.92 -8.27,-0.92l-27.58 0c-4.61,0 -4.11,0.82 -8.27,0.92zm-262.92 241.02c0.16,13.06 18.38,13.01 18.38,-0.16 0,-11.69 -18.22,-12.27 -18.38,-0.16l0 0.32zm409.09 77.98c13.42,0 13.42,-19.3 0,-19.3 -1.59,0 -5.24,1.99 -6.22,2.98 -1.41,1.44 -2.36,3.8 -2.45,6.34 -0.21,6.02 4.94,9.98 8.67,9.98zm-133.3 -233.51c0,9.82 -1.85,18.39 10.11,18.39 10.04,0 8.28,-11.58 8.28,-18.39 0,-11.1 -18.39,-11.1 -18.39,0zm0 187.55c0,7.91 -2.01,19.3 9.19,19.3 12.78,0 12.78,-27.58 0,-27.58 -4.65,0 -9.19,3.31 -9.19,8.28zm98.37 -79.07c8.62,0 18.38,1.52 18.38,-10.11 0,-10.28 -12.28,-8.28 -20.22,-8.28 -8.37,0 -10.21,18.39 1.84,18.39zm-196.73 -10.11c0,11.57 11.28,10.11 17.46,10.11 12.06,0 14.62,-19.3 -1.84,-19.3 -5.82,0 -15.62,-0.06 -15.62,9.19zm97.44 0c0,-6.71 10.25,-12.97 16.83,-6.71 7.47,7.09 0.25,16.82 -3.96,16.82 -6.44,0 -12.87,-0.87 -12.87,-10.11zm22.98 -25.74c-3.11,0 -8.66,-2.52 -12.87,-2.52 -16.78,0 -5.49,10.35 -25.05,-9.2 -5.5,-5.5 -7.77,-10.34 -15.4,-10.34 -7.04,0 -8.27,5.82 -8.27,11.03 0,3.54 20.37,23.07 22.98,24.82 -4,7.55 -3.75,18.45 0.03,25.71 0.48,0.93 1.8,2.87 2.56,3.87 11.18,14.83 31.65,15.85 44.23,2.53 7.88,-8.37 10.04,-21.95 4.67,-32.11l44.84 -44.32c8.48,-8.91 -0.19,-17.27 -5.32,-17.27 -6.78,0 -19.75,15.61 -26.89,22.75 -2.78,2.78 -24.31,25.05 -25.51,25.05zm-136.97 27.58c0,-33.61 12.7,-64.65 35.62,-87.57 5.69,-5.68 9.53,-9.33 16.11,-14.22 34.99,-26.03 84.7,-30.44 124.47,-11.9 43.42,20.23 72.01,64.42 72.01,112.77 0,49.13 -28.73,91.49 -72.31,112.48 -44.92,21.62 -103.81,10.93 -138.91,-24.45 -21.75,-21.92 -36.99,-53.59 -36.99,-87.11zm-18.39 -8.27c0,27.62 1.55,44.63 14.09,69.56 7.99,15.86 16.59,27.68 28.43,39.6 3.17,3.2 5.41,4.86 8.76,7.79 40.63,35.52 99.78,42.08 150.32,20.29 29.44,-12.7 54.68,-38.54 68.98,-67.07 12.82,-25.58 14.41,-41.85 14.41,-70.17 0,-30.1 -14.92,-64.23 -34.72,-86.64 -2.73,-3.09 -5.74,-5.76 -8.72,-8.75 -25.72,-25.72 -62.54,-40.67 -99.06,-40.67 -42.12,0 -79.5,18.89 -107.34,48.94 -6.86,7.41 -12.7,16.73 -17.73,25.48 -9.16,15.89 -17.42,39.32 -17.42,61.64zm328.19 -3.03l0 17.53c-1.1,22.8 -6.49,45.83 -16.01,68.76 -3.24,7.81 -7.41,14.64 -11.5,21.6 -7.72,13.16 -19.38,6.35 -19.38,-0.98 0,-4.7 2.45,-7.61 4.55,-11.09 5.36,-8.87 10.08,-18.83 13.71,-28.58 9.19,-24.67 9.33,-40.16 9.33,-66.06 0,-31.33 -15.21,-67.33 -32.03,-90.23l-24.29 -26.27c-35,-34.08 -96.84,-49.31 -147.96,-37.21 -23.53,5.56 -44.89,15.47 -63.63,30.14 -2.1,1.64 -3.86,2.7 -5.78,4.33l-20.71 20.66c-10.2,11.38 -17.12,24.71 -23.67,37.92 -6.81,13.72 -12.01,32.38 -13.88,48.63 -1.47,12.76 -2.37,24.79 -0.61,38.46 6.47,49.99 28.53,88.09 68.05,117.65 6.31,4.73 18.65,12.32 26.01,15.35 5.25,2.16 9.36,4.17 14.83,6.33 37.12,14.68 84.08,12.39 120.57,-2.25 15.79,-6.33 28.82,-17.1 35.13,-15.6 4.16,1 7.3,4.53 7.3,9.29 0,7.2 -13.65,13.63 -19.3,16.57 -23.82,12.4 -55.14,21.13 -84.59,21.13 -67.36,0 -123.8,-32.99 -157.22,-83.64 -12.85,-19.49 -11.61,-23.1 -18.36,-35.87 -14.1,0 -28.2,0 -42.29,0 -12.44,0 -32.18,3.36 -32.18,-9.2 0,-5.99 3.93,-10.11 9.19,-10.11l58.84 0c-0.03,-1.11 -4.64,-24.38 -5.52,-34.93 -9.8,0 -19.61,0 -29.42,0 -9.78,0 -20.22,1.62 -20.22,-8.28 0,-5.62 2.39,-10.11 8.28,-10.11l41.36 0c0,-7.73 2.44,-30.44 4.6,-34.93l-85.5 0c-5.69,0.01 -18.22,1.66 -18.38,-9l0 -0.39c0.15,-12.32 13.97,-9.91 21.14,-9.91l88.25 0c3.06,-13.12 14.28,-29.86 15.63,-34.94 -11.95,0 -23.9,0 -35.85,0 -11.22,0 -26.66,2.89 -26.66,-8.27 0,-12.83 12.75,-10.11 22.98,-10.11 66.56,0 46.03,4.24 65.49,-15.42 15.31,-15.48 27.03,-23.18 45.57,-34.41 8.36,-5.06 37.14,-17.06 47.07,-17.28l0 -23.9c-5.99,-0.5 -12.56,-6.17 -15.87,-9.89 -7.14,-8.01 -7.12,-14.26 -7.12,-24.13 0,-13.16 14.51,-27.58 30.34,-27.58l68.03 0c15.7,0 30.33,14.64 30.33,30.34 0,16.62 -11.42,30.21 -23.9,31.26l0 22.98c9.54,4.57 35.49,6.22 68.82,31.39 3.82,2.87 7.82,5.66 11.38,8.84 3.78,3.38 7,6.05 10.58,9.64 9.5,9.5 19.34,21.92 26.36,33.4 17.37,28.34 26.61,58.06 28.11,88.37zm-153.52 -212.1l-66.19 0c-14.9,0 -15.78,-24.81 -0.92,-24.81l69.86 0c12.83,0 15.7,24.81 -2.75,24.81z"/>
 </g>
</svg>
