<?xml version="1.0" encoding="UTF-8"?>
<!DOCTYPE svg PUBLIC "-//W3C//DTD SVG 1.1//EN" "http://www.w3.org/Graphics/SVG/1.1/DTD/svg11.dtd">
<!-- Creator: CorelDRAW 2018 (64-Bit) -->
<svg xmlns="http://www.w3.org/2000/svg" xml:space="preserve" width="8.4666mm" height="8.4666mm" version="1.1" style="shape-rendering:geometricPrecision; text-rendering:geometricPrecision; image-rendering:optimizeQuality; fill-rule:evenodd; clip-rule:evenodd"
viewBox="0 0 846.66 846.66"
 xmlns:xlink="http://www.w3.org/1999/xlink">
 <defs>
  <style type="text/css">
   <![CDATA[
    .fil0 {fill:red}
   ]]>
  </style>
 </defs>
 <g id="Layer_x0020_1">
  <metadata id="CorelCorpID_0Corel-Layer"/>
  <path class="fil0" d="M731.73 806.99c-18.55,-27.7 -84.64,-71.14 -103.03,-118.56 -7.47,-19.3 -11.13,-37.12 -11.07,-63.34 0.22,-99.21 -0.03,-198.45 0,-297.66 0.02,-93.77 -30.79,-230.03 -95.9,-276.18 -19.18,-13.6 -31.54,-11.56 -62.85,-11.56 -49.61,0 -99.22,0 -148.83,0 52.17,45.35 80.05,141.27 88.83,207.18 11.36,85.3 7.08,195 7.08,290.57l0 185.21c-0.04,31.86 8.73,57.43 38.07,74.38 20.27,11.7 33.81,9.96 64.46,9.96l223.24 0zm-421.68 -158.75l69.45 0 0 -117.41c-5.48,6.31 -14.11,48.99 -46.52,92.38l-15.9 18.82c-4.4,4.03 -3.68,1.63 -7.03,6.21zm-115.76 -319.16l0 29.77c0,40.12 17.55,117.41 52.92,117.41 35.37,0 52.92,-77.29 52.92,-117.41 0,-43.05 -1.43,-92.16 -25.44,-128.35 -38.09,-57.41 -80.4,23.78 -80.4,98.58zm-26.45 14.88c0,-49.91 19.28,-158.75 79.37,-158.75 16.95,0 29.23,10.07 39.31,20.23 19.62,19.77 29.33,56.52 34.99,84.07 6.56,31.96 6.56,76.95 0,108.91 -5.66,27.55 -15.37,64.3 -34.99,84.07 -17.37,17.51 -37.96,27.61 -62.44,13.59 -17.83,-10.2 -30.52,-31.61 -38.31,-50.98 -11.8,-29.33 -17.93,-67.88 -17.93,-101.14zm-52.92 -18.19c0,85.02 4.49,136.88 30.78,212.31 50.68,145.43 149.86,147.92 202.6,1.23 42.37,-117.9 41.7,-271.01 0.42,-389.46 -13.55,-38.89 -50.21,-110.16 -98.2,-110.16 -31.23,0 -50.63,16.31 -68.77,40.38 -43.71,57.99 -66.83,166.55 -66.83,245.7z"/>
 </g>
</svg>
