<?xml version="1.0" encoding="UTF-8"?>
<!DOCTYPE svg PUBLIC "-//W3C//DTD SVG 1.1//EN" "http://www.w3.org/Graphics/SVG/1.1/DTD/svg11.dtd">
<!-- Creator: CorelDRAW 2018 (64-Bit) -->
<svg xmlns="http://www.w3.org/2000/svg" xml:space="preserve" width="0.333331in" height="0.333331in" version="1.1" style="shape-rendering:geometricPrecision; text-rendering:geometricPrecision; image-rendering:optimizeQuality; fill-rule:evenodd; clip-rule:evenodd"
viewBox="0 0 333.33 333.33"
 xmlns:xlink="http://www.w3.org/1999/xlink">
 <defs>
  <style type="text/css">
   <![CDATA[
    .fil0 {fill:#2dd36f}
   ]]>
  </style>
 </defs>
 <g id="Layer_x0020_1">
  <metadata id="CorelCorpID_0Corel-Layer"/>
  <path class="fil0" d="M148.04 275.21c4.51,0.1 8.69,1.69 22.01,1.69 6.82,0 11.87,-1.62 15.24,-1.69l-0.56 16.93c-2.79,0.06 -11,1.69 -18.06,1.69 -6.18,0 -15.55,-1.64 -18.06,-1.69l-0.56 -16.93zm18.99 -154.68c18.52,-19.79 49.04,-43.53 49.04,-71.47 0,-27.09 -21.95,-49.06 -49.04,-49.06 -27.11,0 -49.06,21.98 -49.06,49.06 0,27.94 30.52,51.68 49.06,71.47l0 0zm-0.01 -104.5c15.96,0 28.89,12.94 28.89,28.89 0,15.96 -12.94,28.9 -28.89,28.9 -15.96,0 -28.9,-12.94 -28.9,-28.9 0,-15.96 12.94,-28.89 28.9,-28.89zm-104.19 74.09c0,8.44 11.29,8.44 11.29,0 0,-6.82 -11.29,-6.82 -11.29,0zm86.9 98.75c0,-1.73 1.12,-5.53 1.68,-6.78 8.98,-20.18 39.45,-6.54 30.5,13.57 -1.64,3.68 -4.78,6.83 -8.46,8.46 -9.06,4.03 -18.51,-0.56 -22.03,-8.46 -0.56,-1.25 -1.68,-5.05 -1.68,-6.78zm-11.29 -2.26c0,9.37 1.29,15.29 8.24,22.24 18.79,18.79 48.2,2.79 48.2,-17.72 0,-9.37 -1.29,-15.29 -8.24,-22.24 -18.79,-18.79 -48.2,-2.79 -48.2,17.72zm-55.86 -112.86c0,4.4 1.81,6.21 6.2,6.21 1.99,0 12.02,-6.88 16.36,-9.04 3.96,-1.96 7.75,-3.81 11.89,-5.51 -1.44,-3.69 -2.49,-7.45 -3.04,-11.29 -8.81,3.37 -17.19,7.59 -24.89,12.63 -2.54,1.67 -6.54,3.41 -6.54,7zm134.29 -8.04c9.3,3.84 18.42,8.75 25.65,14 7.4,5.37 16.09,12.29 21.93,19.26l7.81 9.12c3.38,4.22 7.11,10.28 9.9,14.93 2.19,3.65 4.17,7.34 5.74,11.19 9.8,24.01 13.85,43.85 10.85,69.94 -2.43,21.15 -10.5,43.44 -22.94,60.57 -1.3,1.78 -1.94,2.86 -3.3,4.6 -12,15.33 -23.25,25 -40,35.05 -14.07,8.44 -33.37,14.69 -50.05,16.54 -38.76,4.31 -70.95,-6.31 -100.94,-29.98 -12.12,-9.57 -22.45,-23.02 -30.37,-36.22 -19.52,-32.56 -22.18,-73.66 -10.27,-109.23 3.05,-9.12 7.46,-17.93 12.31,-26.06 2.22,-3.71 4.55,-5.61 4.55,-9.56 0,-3.61 -2.76,-5.07 -6.21,-5.07 -4.57,0 -9.94,11.31 -12.03,15.06 -9.59,17.14 -17.31,42.54 -17.31,63.94 0,25.12 3.15,45.85 13.16,65.84 2.02,4.03 3.82,7.9 5.99,11.5 10.01,16.59 9.13,13.03 18.42,25.04 10.2,13.19 30.52,26.12 45.38,33.62 13.17,6.65 36.66,13.54 56.43,13.54l10.16 0c19.47,0 42.93,-6.73 56.06,-13.35 8.22,-4.14 14.95,-7.64 22.14,-12.84 22.23,-16.08 35.35,-32.42 47.64,-56.76 6.62,-13.11 13.54,-36.73 13.54,-56.43l0 -10.16c0,-19.47 -6.73,-42.93 -13.35,-56.06 -4.12,-8.18 -7.65,-15 -12.85,-22.14 -16.41,-22.56 -32.32,-35.33 -57.13,-47.83 -2.54,-1.28 -5.13,-2.46 -7.78,-3.56 -0.57,3.92 -1.65,7.76 -3.15,11.52zm-20.87 223.6c0,-21.78 7.67,-39.96 21.31,-55.44 5.44,-6.17 14.7,-12.79 21.76,-16.61 6.37,-3.45 20.9,-8.65 30.29,-8.65 -0.13,5.92 -4.43,16.58 -6.69,22.09 -3.96,9.65 -9.7,18.6 -16.58,26.31 -11.68,13.11 -19.93,19.19 -35.6,27.04 -2.55,1.28 -11.66,5.03 -14.49,5.26zm-132.04 -80.69c14.35,0 30.87,7.97 41.6,15.96 20.02,14.91 31.76,39.07 31.76,64.73 -8.94,-2.08 -19.86,-7.42 -26.53,-11.84 -9.6,-6.38 -18.36,-13.55 -25.39,-22.57 -6.29,-8.07 -10.38,-14.17 -14.66,-23.71 -2.17,-4.83 -6.64,-17.48 -6.78,-22.57zm36.11 -57c5.45,0 10.56,-1.22 15.81,-1.68 11.36,-0.98 21.9,-2.33 33.28,-2.27l17.49 -0.57c22.38,0 43.81,1.61 64.41,4.44 3.4,0.47 2.89,0.79 4.26,3.64l4.34 10.89c3.08,9.24 4.35,23.52 2.8,33.71 -0.9,5.92 -0.92,2.4 -13.28,9.85 -15.84,9.55 -29.04,23.78 -36.41,40.9 -1.22,2.84 -4.04,8.28 -4.11,11.69 -6.83,1.59 -17.43,4.25 -24.67,3.24 -3.04,-0.43 -15.51,-1.54 -18.04,-2.85 -2.16,-1.12 -0.96,-0.74 -2.44,-4.9 -6.52,-18.27 -20.93,-37.11 -37.63,-47.02 -14.93,-8.87 -14.6,-5.01 -15.34,-12.87 -1.68,-17.8 2.34,-35.48 9.52,-46.2zm147.85 2.82c6.2,0 13.27,2.89 19.19,3.39l3.16 14.9c1.41,8.82 1.56,15.28 0.69,24.03 -6.79,0.03 -13.34,2.19 -16.82,2.27l0.57 -13.54c0,-8.6 -3.28,-23.22 -6.77,-31.04zm-169.29 31.04l0.57 13.54c-3.57,-0.08 -9.95,-2.26 -16.93,-2.26 0,-3.13 -0.57,-3.35 -0.57,-6.21 0,-5.69 0.54,-11.99 1.28,-17.34l3.23 -15.39c5.91,-0.49 12.98,-3.39 19.19,-3.39 -0.54,2.3 -1.7,4.1 -2.46,6.56 -0.82,2.66 -1.44,4.98 -2.06,7.54 -1.15,4.76 -2.25,11.09 -2.25,16.94zm-6.77 -40.63c1.33,-5.71 11.28,-19.74 15.09,-23.84 7.35,-7.9 9.63,-11.31 20.46,-18.48 9.07,-6.01 16.43,-9.8 24.93,-12.66 -2.65,-3.2 -5.15,-6.46 -7.4,-9.8 -8.28,3.28 -16.33,7.75 -25.21,13.65 -5.49,3.65 -10.76,8.34 -15.32,12.9 -19.67,19.67 -34,49.24 -34,77.73 0,30.71 5.72,48.28 21.1,71.44 3.65,5.5 8.34,10.76 12.9,15.32 6.26,6.26 15.71,13.98 23.56,18.2 22.19,11.92 35.23,15.8 63.2,15.8 20.76,0 38.41,-7.24 53.8,-15.61 32.8,-17.83 57.93,-58.36 57.93,-96.13 0,-30.67 -5.74,-48.31 -21.1,-71.44 -11.87,-17.88 -31.43,-32.95 -52.91,-41.57 -2.27,3.34 -4.79,6.61 -7.46,9.81 10.7,3.94 20.83,9.54 30.04,16.37 10.69,7.94 27.57,27.93 29.98,38.3l-19.67 -3.47c-6.17,-1.03 -13.89,-2.17 -20.41,-2.72 -46.57,-3.99 -62.9,-3.99 -109.44,0 -3.35,0.29 -6.52,0.78 -10,1.29 -3.06,0.44 -7.28,0.91 -10.41,1.44 -3.3,0.55 -6.74,1.13 -9.67,1.61 -3.44,0.57 -6.96,1.6 -10,1.85z"/>
 </g>
</svg>
